<?xml version="1.0" encoding="UTF-8" standalone="no"?>
<!DOCTYPE svg PUBLIC "-//W3C//DTD SVG 1.1//EN"
 "http://www.w3.org/Graphics/SVG/1.1/DTD/svg11.dtd">
<!-- Generated by graphviz version 2.38.0 (20140413.2041)
 -->
<!-- Title: controllers_diagram Pages: 1 -->
<svg width="540pt" height="517pt"
 viewBox="0.00 0.00 539.94 517.00" xmlns="http://www.w3.org/2000/svg" xmlns:xlink="http://www.w3.org/1999/xlink">
<g id="graph0" class="graph" transform="scale(1 1) rotate(0) translate(227.831 289.5)">
<title>controllers_diagram</title>
<polygon fill="none" stroke="none" points="-227.831,227.5 -227.831,-289.5 312.107,-289.5 312.107,227.5 -227.831,227.5"/>
<!-- _diagram_info -->
<g id="node1" class="node"><title>_diagram_info</title>
<text text-anchor="start" x="8.31226" y="148.9" font-family="Times,serif" font-size="13.00">Controllers diagram</text>
<text text-anchor="start" x="8.31226" y="161.9" font-family="Times,serif" font-size="13.00">Date: Oct 27 2015 &#45; 23:56</text>
<text text-anchor="start" x="8.31226" y="174.9" font-family="Times,serif" font-size="13.00">Migration version: 20151024150032</text>
<text text-anchor="start" x="8.31226" y="187.9" font-family="Times,serif" font-size="13.00">Generated by RailRoady 1.4.1</text>
<text text-anchor="start" x="8.31226" y="200.9" font-family="Times,serif" font-size="13.00">http://railroady.prestonlee.com</text>
</g>
<!-- ApplicationController -->
<g id="node2" class="node"><title>ApplicationController</title>
<path fill="none" stroke="black" d="M-84.4727,95C-84.4727,95 54.4727,95 54.4727,95 60.4727,95 66.4727,89 66.4727,83 66.4727,83 66.4727,-53 66.4727,-53 66.4727,-59 60.4727,-65 54.4727,-65 54.4727,-65 -84.4727,-65 -84.4727,-65 -90.4727,-65 -96.4727,-59 -96.4727,-53 -96.4727,-53 -96.4727,83 -96.4727,83 -96.4727,89 -90.4727,95 -84.4727,95"/>
<text text-anchor="middle" x="-15" y="-49.8" font-family="Times,serif" font-size="14.00">ApplicationController</text>
<polyline fill="none" stroke="black" points="-96.4727,-43 66.4727,-43 "/>
<text text-anchor="start" x="-88.4727" y="-27.8" font-family="Times,serif" font-size="14.00">current_user</text>
<text text-anchor="start" x="-88.4727" y="-13.8" font-family="Times,serif" font-size="14.00">default_url_options</text>
<text text-anchor="start" x="-88.4727" y="0.2" font-family="Times,serif" font-size="14.00">require_authentication</text>
<text text-anchor="start" x="-88.4727" y="14.2" font-family="Times,serif" font-size="14.00">require_no_authentication</text>
<text text-anchor="start" x="-88.4727" y="28.2" font-family="Times,serif" font-size="14.00">user_session</text>
<text text-anchor="start" x="-88.4727" y="42.2" font-family="Times,serif" font-size="14.00">user_signed_in?</text>
<polyline fill="none" stroke="black" points="-96.4727,49 66.4727,49 "/>
<polyline fill="none" stroke="black" points="-96.4727,73 66.4727,73 "/>
<text text-anchor="start" x="-88.4727" y="88.2" font-family="Times,serif" font-size="14.00">_layout</text>
</g>
<!-- BooksController -->
<g id="node3" class="node"><title>BooksController</title>
<path fill="none" stroke="black" d="M108.334,95C108.334,95 193.666,95 193.666,95 199.666,95 205.666,89 205.666,83 205.666,83 205.666,-109 205.666,-109 205.666,-115 199.666,-121 193.666,-121 193.666,-121 108.334,-121 108.334,-121 102.334,-121 96.3345,-115 96.3345,-109 96.3345,-109 96.3345,83 96.3345,83 96.3345,89 102.334,95 108.334,95"/>
<text text-anchor="middle" x="151" y="-105.8" font-family="Times,serif" font-size="14.00">BooksController</text>
<polyline fill="none" stroke="black" points="96.3345,-99 205.666,-99 "/>
<text text-anchor="start" x="104.334" y="-83.8" font-family="Times,serif" font-size="14.00">create</text>
<text text-anchor="start" x="104.334" y="-69.8" font-family="Times,serif" font-size="14.00">destroy</text>
<text text-anchor="start" x="104.334" y="-55.8" font-family="Times,serif" font-size="14.00">edit</text>
<text text-anchor="start" x="104.334" y="-41.8" font-family="Times,serif" font-size="14.00">index</text>
<text text-anchor="start" x="104.334" y="-27.8" font-family="Times,serif" font-size="14.00">new</text>
<text text-anchor="start" x="104.334" y="-13.8" font-family="Times,serif" font-size="14.00">show</text>
<text text-anchor="start" x="104.334" y="0.2" font-family="Times,serif" font-size="14.00">update</text>
<polyline fill="none" stroke="black" points="96.3345,7 205.666,7 "/>
<polyline fill="none" stroke="black" points="96.3345,31 205.666,31 "/>
<text text-anchor="start" x="104.334" y="46.2" font-family="Times,serif" font-size="14.00">_layout</text>
<text text-anchor="start" x="104.334" y="60.2" font-family="Times,serif" font-size="14.00">book_params</text>
<text text-anchor="start" x="104.334" y="74.2" font-family="Times,serif" font-size="14.00">set_book</text>
<text text-anchor="start" x="104.334" y="88.2" font-family="Times,serif" font-size="14.00">set_users_book</text>
</g>
<!-- ConfirmationsController -->
<g id="node4" class="node"><title>ConfirmationsController</title>
<path fill="none" stroke="black" d="M-211.831,223C-211.831,223 -82.1689,223 -82.1689,223 -76.1689,223 -70.1689,217 -70.1689,211 -70.1689,211 -70.1689,145 -70.1689,145 -70.1689,139 -76.1689,133 -82.1689,133 -82.1689,133 -211.831,133 -211.831,133 -217.831,133 -223.831,139 -223.831,145 -223.831,145 -223.831,211 -223.831,211 -223.831,217 -217.831,223 -211.831,223"/>
<text text-anchor="middle" x="-147" y="148.2" font-family="Times,serif" font-size="14.00">ConfirmationsController</text>
<polyline fill="none" stroke="black" points="-223.831,155 -70.1689,155 "/>
<text text-anchor="start" x="-215.831" y="170.2" font-family="Times,serif" font-size="14.00">show</text>
<polyline fill="none" stroke="black" points="-223.831,177 -70.1689,177 "/>
<polyline fill="none" stroke="black" points="-223.831,201 -70.1689,201 "/>
<text text-anchor="start" x="-215.831" y="216.2" font-family="Times,serif" font-size="14.00">_layout</text>
</g>
<!-- HomeController -->
<g id="node5" class="node"><title>HomeController</title>
<path fill="none" stroke="black" d="M-179.879,-193C-179.879,-193 -96.1206,-193 -96.1206,-193 -90.1206,-193 -84.1206,-199 -84.1206,-205 -84.1206,-205 -84.1206,-271 -84.1206,-271 -84.1206,-277 -90.1206,-283 -96.1206,-283 -96.1206,-283 -179.879,-283 -179.879,-283 -185.879,-283 -191.879,-277 -191.879,-271 -191.879,-271 -191.879,-205 -191.879,-205 -191.879,-199 -185.879,-193 -179.879,-193"/>
<text text-anchor="middle" x="-138" y="-267.8" font-family="Times,serif" font-size="14.00">HomeController</text>
<polyline fill="none" stroke="black" points="-191.879,-261 -84.1206,-261 "/>
<text text-anchor="start" x="-183.879" y="-245.8" font-family="Times,serif" font-size="14.00">index</text>
<polyline fill="none" stroke="black" points="-191.879,-239 -84.1206,-239 "/>
<polyline fill="none" stroke="black" points="-191.879,-215 -84.1206,-215 "/>
<text text-anchor="start" x="-183.879" y="-199.8" font-family="Times,serif" font-size="14.00">_layout</text>
</g>
<!-- UserSessionsController -->
<g id="node6" class="node"><title>UserSessionsController</title>
<path fill="none" stroke="black" d="M171.893,-161C171.893,-161 296.107,-161 296.107,-161 302.107,-161 308.107,-167 308.107,-173 308.107,-173 308.107,-267 308.107,-267 308.107,-273 302.107,-279 296.107,-279 296.107,-279 171.893,-279 171.893,-279 165.893,-279 159.893,-273 159.893,-267 159.893,-267 159.893,-173 159.893,-173 159.893,-167 165.893,-161 171.893,-161"/>
<text text-anchor="middle" x="234" y="-263.8" font-family="Times,serif" font-size="14.00">UserSessionsController</text>
<polyline fill="none" stroke="black" points="159.893,-257 308.107,-257 "/>
<text text-anchor="start" x="167.893" y="-241.8" font-family="Times,serif" font-size="14.00">create</text>
<text text-anchor="start" x="167.893" y="-227.8" font-family="Times,serif" font-size="14.00">destroy</text>
<text text-anchor="start" x="167.893" y="-213.8" font-family="Times,serif" font-size="14.00">new</text>
<polyline fill="none" stroke="black" points="159.893,-207 308.107,-207 "/>
<polyline fill="none" stroke="black" points="159.893,-183 308.107,-183 "/>
<text text-anchor="start" x="167.893" y="-167.8" font-family="Times,serif" font-size="14.00">_layout</text>
</g>
<!-- UsersController -->
<g id="node7" class="node"><title>UsersController</title>
<path fill="none" stroke="black" d="M-35.7139,-97C-35.7139,-97 45.7139,-97 45.7139,-97 51.7139,-97 57.7139,-103 57.7139,-109 57.7139,-109 57.7139,-273 57.7139,-273 57.7139,-279 51.7139,-285 45.7139,-285 45.7139,-285 -35.7139,-285 -35.7139,-285 -41.7139,-285 -47.7139,-279 -47.7139,-273 -47.7139,-273 -47.7139,-109 -47.7139,-109 -47.7139,-103 -41.7139,-97 -35.7139,-97"/>
<text text-anchor="middle" x="5" y="-269.8" font-family="Times,serif" font-size="14.00">UsersController</text>
<polyline fill="none" stroke="black" points="-47.7139,-263 57.7139,-263 "/>
<text text-anchor="start" x="-39.7139" y="-247.8" font-family="Times,serif" font-size="14.00">create</text>
<text text-anchor="start" x="-39.7139" y="-233.8" font-family="Times,serif" font-size="14.00">edit</text>
<text text-anchor="start" x="-39.7139" y="-219.8" font-family="Times,serif" font-size="14.00">new</text>
<text text-anchor="start" x="-39.7139" y="-205.8" font-family="Times,serif" font-size="14.00">show</text>
<text text-anchor="start" x="-39.7139" y="-191.8" font-family="Times,serif" font-size="14.00">update</text>
<polyline fill="none" stroke="black" points="-47.7139,-185 57.7139,-185 "/>
<polyline fill="none" stroke="black" points="-47.7139,-161 57.7139,-161 "/>
<text text-anchor="start" x="-39.7139" y="-145.8" font-family="Times,serif" font-size="14.00">_layout</text>
<text text-anchor="start" x="-39.7139" y="-131.8" font-family="Times,serif" font-size="14.00">can_change</text>
<text text-anchor="start" x="-39.7139" y="-117.8" font-family="Times,serif" font-size="14.00">user</text>
<text text-anchor="start" x="-39.7139" y="-103.8" font-family="Times,serif" font-size="14.00">user_params</text>
</g>
</g>
</svg>
