<?xml version="1.0" encoding="UTF-8" standalone="no"?>
<!DOCTYPE svg PUBLIC "-//W3C//DTD SVG 1.1//EN"
 "http://www.w3.org/Graphics/SVG/1.1/DTD/svg11.dtd">
<!-- Generated by graphviz version 2.38.0 (20140413.2041)
 -->
<!-- Title: models_diagram Pages: 1 -->
<svg width="391pt" height="240pt"
 viewBox="0.00 0.00 391.30 240.00" xmlns="http://www.w3.org/2000/svg" xmlns:xlink="http://www.w3.org/1999/xlink">
<g id="graph0" class="graph" transform="scale(1 1) rotate(0) translate(4 236)">
<title>models_diagram</title>
<polygon fill="none" stroke="none" points="-4,4 -4,-236 387.298,-236 387.298,4 -4,4"/>
<!-- _diagram_info -->
<g id="node1" class="node"><title>_diagram_info</title>
<text text-anchor="start" x="8" y="-217.6" font-family="Times,serif" font-size="13.00">Models diagram</text>
<text text-anchor="start" x="8" y="-204.6" font-family="Times,serif" font-size="13.00">Date: Oct 27 2015 &#45; 23:56</text>
<text text-anchor="start" x="8" y="-191.6" font-family="Times,serif" font-size="13.00">Migration version: 20151024150032</text>
<text text-anchor="start" x="8" y="-178.6" font-family="Times,serif" font-size="13.00">Generated by RailRoady 1.4.1</text>
<text text-anchor="start" x="8" y="-165.6" font-family="Times,serif" font-size="13.00">http://railroady.prestonlee.com</text>
</g>
<!-- Book -->
<g id="node2" class="node"><title>Book</title>
<ellipse fill="none" stroke="black" cx="215.688" cy="-104" rx="29.0429" ry="18"/>
<text text-anchor="middle" x="215.688" y="-99.8" font-family="Times,serif" font-size="14.00">Book</text>
</g>
<!-- Review -->
<g id="node3" class="node"><title>Review</title>
<ellipse fill="none" stroke="black" cx="272.688" cy="-18" rx="37.2421" ry="18"/>
<text text-anchor="middle" x="272.688" y="-13.8" font-family="Times,serif" font-size="14.00">Review</text>
</g>
<!-- Book&#45;&gt;Review -->
<g id="edge1" class="edge"><title>Book&#45;&gt;Review</title>
<path fill="none" stroke="#c9c630" d="M230.919,-80.5543C238.625,-69.1972 247.998,-55.3843 255.911,-43.7233"/>
<ellipse fill="none" stroke="#c9c630" cx="228.655" cy="-83.8903" rx="4.00002" ry="4.00002"/>
<polygon fill="#c9c630" stroke="#c9c630" points="256.011,-43.5767 265.349,-37.8287 258.818,-39.4393 261.626,-35.3019 261.626,-35.3019 261.626,-35.3019 258.818,-39.4393 257.902,-32.7751 256.011,-43.5767 256.011,-43.5767"/>
</g>
<!-- FriendlyId::Slug -->
<g id="node6" class="node"><title>FriendlyId::Slug</title>
<ellipse fill="none" stroke="black" cx="148.688" cy="-18" rx="68.6478" ry="18"/>
<text text-anchor="middle" x="148.688" y="-13.8" font-family="Times,serif" font-size="14.00">FriendlyId::Slug</text>
</g>
<!-- Book&#45;&gt;FriendlyId::Slug -->
<g id="edge2" class="edge"><title>Book&#45;&gt;FriendlyId::Slug</title>
<path fill="none" stroke="#493ee4" d="M198.141,-81.0016C189.056,-69.6111 177.928,-55.66 168.531,-43.8778"/>
<ellipse fill="none" stroke="#493ee4" cx="200.905" cy="-84.466" rx="4.00002" ry="4.00002"/>
<polygon fill="#493ee4" stroke="#493ee4" points="168.283,-43.5673 165.566,-32.9435 165.165,-39.6585 162.048,-35.7496 162.048,-35.7496 162.048,-35.7496 165.165,-39.6585 158.53,-38.5556 168.283,-43.5673 168.283,-43.5673"/>
<text text-anchor="middle" x="200.081" y="-56.8" font-family="Times,serif" font-size="14.00">slugs</text>
</g>
<!-- User -->
<g id="node4" class="node"><title>User</title>
<ellipse fill="none" stroke="black" cx="252.688" cy="-195.5" rx="27" ry="18"/>
<text text-anchor="middle" x="252.688" y="-191.3" font-family="Times,serif" font-size="14.00">User</text>
</g>
<!-- User&#45;&gt;Book -->
<g id="edge3" class="edge"><title>User&#45;&gt;Book</title>
<path fill="none" stroke="#30911c" d="M242.587,-170.068C237.586,-157.97 231.545,-143.356 226.455,-131.046"/>
<ellipse fill="none" stroke="#30911c" cx="244.2" cy="-173.969" rx="4.00001" ry="4.00001"/>
<polygon fill="#30911c" stroke="#30911c" points="226.436,-131 226.775,-120.04 224.526,-126.379 222.616,-121.759 222.616,-121.759 222.616,-121.759 224.526,-126.379 218.457,-123.478 226.436,-131 226.436,-131"/>
</g>
<!-- User&#45;&gt;Review -->
<g id="edge4" class="edge"><title>User&#45;&gt;Review</title>
<path fill="none" stroke="#40d3f1" d="M255.566,-169.247C259.289,-136.578 265.75,-79.883 269.581,-46.2622"/>
<ellipse fill="none" stroke="#40d3f1" cx="255.095" cy="-173.379" rx="4.00001" ry="4.00001"/>
<polygon fill="#40d3f1" stroke="#40d3f1" points="269.593,-46.1525 275.197,-36.7264 270.16,-41.1847 270.726,-36.2168 270.726,-36.2168 270.726,-36.2168 270.16,-41.1847 266.255,-35.7073 269.593,-46.1525 269.593,-46.1525"/>
</g>
<!-- UserSession -->
<g id="node5" class="node"><title>UserSession</title>
<polygon fill="none" stroke="black" points="383.409,-213.5 297.967,-213.5 297.967,-177.5 383.409,-177.5 383.409,-213.5"/>
<text text-anchor="middle" x="340.688" y="-191.3" font-family="Times,serif" font-size="14.00">UserSession</text>
</g>
</g>
</svg>
