<?xml version="1.0" encoding="UTF-8" standalone="no"?>
<!DOCTYPE svg PUBLIC "-//W3C//DTD SVG 1.1//EN"
 "http://www.w3.org/Graphics/SVG/1.1/DTD/svg11.dtd">
<!-- Generated by graphviz version 2.38.0 (20140413.2041)
 -->
<!-- Title: models_diagram Pages: 1 -->
<svg width="541pt" height="566pt"
 viewBox="0.00 0.00 541.30 566.00" xmlns="http://www.w3.org/2000/svg" xmlns:xlink="http://www.w3.org/1999/xlink">
<g id="graph0" class="graph" transform="scale(1 1) rotate(0) translate(4 562)">
<title>models_diagram</title>
<polygon fill="none" stroke="none" points="-4,4 -4,-562 537.298,-562 537.298,4 -4,4"/>
<!-- _diagram_info -->
<g id="node1" class="node"><title>_diagram_info</title>
<text text-anchor="start" x="8" y="-487.6" font-family="Times,serif" font-size="13.00">Models diagram</text>
<text text-anchor="start" x="8" y="-474.6" font-family="Times,serif" font-size="13.00">Date: Oct 27 2015 &#45; 23:56</text>
<text text-anchor="start" x="8" y="-461.6" font-family="Times,serif" font-size="13.00">Migration version: 20151024150032</text>
<text text-anchor="start" x="8" y="-448.6" font-family="Times,serif" font-size="13.00">Generated by RailRoady 1.4.1</text>
<text text-anchor="start" x="8" y="-435.6" font-family="Times,serif" font-size="13.00">http://railroady.prestonlee.com</text>
</g>
<!-- Book -->
<g id="node2" class="node"><title>Book</title>
<path fill="none" stroke="black" d="M200.377,-165.5C200.377,-165.5 318.999,-165.5 318.999,-165.5 324.999,-165.5 330.999,-171.5 330.999,-177.5 330.999,-177.5 330.999,-323.5 330.999,-323.5 330.999,-329.5 324.999,-335.5 318.999,-335.5 318.999,-335.5 200.377,-335.5 200.377,-335.5 194.377,-335.5 188.377,-329.5 188.377,-323.5 188.377,-323.5 188.377,-177.5 188.377,-177.5 188.377,-171.5 194.377,-165.5 200.377,-165.5"/>
<text text-anchor="middle" x="259.688" y="-320.3" font-family="Times,serif" font-size="14.00">Book</text>
<polyline fill="none" stroke="black" points="188.377,-313.5 330.999,-313.5 "/>
<text text-anchor="start" x="196.377" y="-298.3" font-family="Times,serif" font-size="14.00">id :int(11)</text>
<text text-anchor="start" x="196.377" y="-284.3" font-family="Times,serif" font-size="14.00">title :varchar(255)</text>
<text text-anchor="start" x="196.377" y="-270.3" font-family="Times,serif" font-size="14.00">location :varchar(255)</text>
<text text-anchor="start" x="196.377" y="-256.3" font-family="Times,serif" font-size="14.00">description :text</text>
<text text-anchor="start" x="196.377" y="-242.3" font-family="Times,serif" font-size="14.00">created_at :datetime</text>
<text text-anchor="start" x="196.377" y="-228.3" font-family="Times,serif" font-size="14.00">updated_at :datetime</text>
<text text-anchor="start" x="196.377" y="-214.3" font-family="Times,serif" font-size="14.00">user_id :int(11)</text>
<text text-anchor="start" x="196.377" y="-200.3" font-family="Times,serif" font-size="14.00">reviews_count :int(11)</text>
<text text-anchor="start" x="196.377" y="-186.3" font-family="Times,serif" font-size="14.00">slug :varchar(255)</text>
<text text-anchor="start" x="196.377" y="-172.3" font-family="Times,serif" font-size="14.00">picture :varchar(255)</text>
</g>
<!-- Review -->
<g id="node3" class="node"><title>Review</title>
<path fill="none" stroke="black" d="M304.182,-0.5C304.182,-0.5 413.193,-0.5 413.193,-0.5 419.193,-0.5 425.193,-6.5 425.193,-12.5 425.193,-12.5 425.193,-102.5 425.193,-102.5 425.193,-108.5 419.193,-114.5 413.193,-114.5 413.193,-114.5 304.182,-114.5 304.182,-114.5 298.182,-114.5 292.182,-108.5 292.182,-102.5 292.182,-102.5 292.182,-12.5 292.182,-12.5 292.182,-6.5 298.182,-0.5 304.182,-0.5"/>
<text text-anchor="middle" x="358.688" y="-99.3" font-family="Times,serif" font-size="14.00">Review</text>
<polyline fill="none" stroke="black" points="292.182,-92.5 425.193,-92.5 "/>
<text text-anchor="start" x="300.182" y="-77.3" font-family="Times,serif" font-size="14.00">id :int(11)</text>
<text text-anchor="start" x="300.182" y="-63.3" font-family="Times,serif" font-size="14.00">user_id :int(11)</text>
<text text-anchor="start" x="300.182" y="-49.3" font-family="Times,serif" font-size="14.00">book_id :int(11)</text>
<text text-anchor="start" x="300.182" y="-35.3" font-family="Times,serif" font-size="14.00">points :int(11)</text>
<text text-anchor="start" x="300.182" y="-21.3" font-family="Times,serif" font-size="14.00">created_at :datetime</text>
<text text-anchor="start" x="300.182" y="-7.3" font-family="Times,serif" font-size="14.00">updated_at :datetime</text>
</g>
<!-- Book&#45;&gt;Review -->
<g id="edge1" class="edge"><title>Book&#45;&gt;Review</title>
<path fill="none" stroke="#f6c33c" d="M307.031,-158.161C313.055,-146.538 319.122,-134.834 324.874,-123.737"/>
<ellipse fill="none" stroke="#f6c33c" cx="305.095" cy="-161.895" rx="4.00002" ry="4.00002"/>
<polygon fill="#f6c33c" stroke="#f6c33c" points="325.021,-123.452 333.618,-116.645 327.322,-119.013 329.623,-114.574 329.623,-114.574 329.623,-114.574 327.322,-119.013 325.628,-112.503 325.021,-123.452 325.021,-123.452"/>
</g>
<!-- FriendlyId::Slug -->
<g id="node6" class="node"><title>FriendlyId::Slug</title>
<ellipse fill="none" stroke="black" cx="205.688" cy="-57.5" rx="68.6478" ry="18"/>
<text text-anchor="middle" x="205.688" y="-53.3" font-family="Times,serif" font-size="14.00">FriendlyId::Slug</text>
</g>
<!-- Book&#45;&gt;FriendlyId::Slug -->
<g id="edge2" class="edge"><title>Book&#45;&gt;FriendlyId::Slug</title>
<path fill="none" stroke="#c412ec" d="M233.688,-157.538C226.25,-131.228 218.71,-104.56 213.331,-85.5349"/>
<ellipse fill="none" stroke="#c412ec" cx="234.836" cy="-161.598" rx="4.00001" ry="4.00001"/>
<polygon fill="#c412ec" stroke="#c412ec" points="213.3,-85.4255 214.91,-74.5784 211.94,-80.6141 210.58,-75.8027 210.58,-75.8027 210.58,-75.8027 211.94,-80.6141 206.249,-77.027 213.3,-85.4255 213.3,-85.4255"/>
<text text-anchor="middle" x="243.081" y="-135.8" font-family="Times,serif" font-size="14.00">slugs</text>
</g>
<!-- User -->
<g id="node4" class="node"><title>User</title>
<path fill="none" stroke="black" d="M237.024,-373.5C237.024,-373.5 418.352,-373.5 418.352,-373.5 424.352,-373.5 430.352,-379.5 430.352,-385.5 430.352,-385.5 430.352,-545.5 430.352,-545.5 430.352,-551.5 424.352,-557.5 418.352,-557.5 418.352,-557.5 237.024,-557.5 237.024,-557.5 231.024,-557.5 225.024,-551.5 225.024,-545.5 225.024,-545.5 225.024,-385.5 225.024,-385.5 225.024,-379.5 231.024,-373.5 237.024,-373.5"/>
<text text-anchor="middle" x="327.688" y="-542.3" font-family="Times,serif" font-size="14.00">User</text>
<polyline fill="none" stroke="black" points="225.024,-535.5 430.352,-535.5 "/>
<text text-anchor="start" x="233.024" y="-520.3" font-family="Times,serif" font-size="14.00">id :int(11)</text>
<text text-anchor="start" x="233.024" y="-506.3" font-family="Times,serif" font-size="14.00">full_name :varchar(255)</text>
<text text-anchor="start" x="233.024" y="-492.3" font-family="Times,serif" font-size="14.00">email :varchar(255)</text>
<text text-anchor="start" x="233.024" y="-478.3" font-family="Times,serif" font-size="14.00">location :varchar(255)</text>
<text text-anchor="start" x="233.024" y="-464.3" font-family="Times,serif" font-size="14.00">bio :text</text>
<text text-anchor="start" x="233.024" y="-450.3" font-family="Times,serif" font-size="14.00">created_at :datetime</text>
<text text-anchor="start" x="233.024" y="-436.3" font-family="Times,serif" font-size="14.00">updated_at :datetime</text>
<text text-anchor="start" x="233.024" y="-422.3" font-family="Times,serif" font-size="14.00">password_digest :varchar(255)</text>
<text text-anchor="start" x="233.024" y="-408.3" font-family="Times,serif" font-size="14.00">confirmed_at :datetime</text>
<text text-anchor="start" x="233.024" y="-394.3" font-family="Times,serif" font-size="14.00">confirmation_token :varchar(255)</text>
<text text-anchor="start" x="233.024" y="-380.3" font-family="Times,serif" font-size="14.00">telefone :varchar(255)</text>
</g>
<!-- User&#45;&gt;Book -->
<g id="edge3" class="edge"><title>User&#45;&gt;Book</title>
<path fill="none" stroke="#d819b5" d="M296.035,-365.351C293.917,-358.719 291.788,-352.05 289.68,-345.445"/>
<ellipse fill="none" stroke="#d819b5" cx="297.337" cy="-369.431" rx="4.00001" ry="4.00001"/>
<polygon fill="#d819b5" stroke="#d819b5" points="289.651,-345.354 290.896,-334.459 288.13,-340.591 286.609,-335.828 286.609,-335.828 286.609,-335.828 288.13,-340.591 282.322,-337.196 289.651,-345.354 289.651,-345.354"/>
</g>
<!-- User&#45;&gt;Review -->
<g id="edge4" class="edge"><title>User&#45;&gt;Review</title>
<path fill="none" stroke="#3daa67" d="M337.222,-365.036C338.088,-355.228 338.925,-345.422 339.688,-336 345.527,-263.84 351.043,-181.028 354.612,-124.787"/>
<ellipse fill="none" stroke="#3daa67" cx="336.844" cy="-369.283" rx="4" ry="4"/>
<polygon fill="#3daa67" stroke="#3daa67" points="354.625,-124.583 359.746,-114.887 354.94,-119.593 355.255,-114.603 355.255,-114.603 355.255,-114.603 354.94,-119.593 350.764,-114.32 354.625,-124.583 354.625,-124.583"/>
</g>
<!-- UserSession -->
<g id="node5" class="node"><title>UserSession</title>
<polygon fill="none" stroke="black" points="448.077,-443.5 448.077,-487.5 533.298,-487.5 533.298,-443.5 448.077,-443.5"/>
<text text-anchor="middle" x="490.688" y="-472.3" font-family="Times,serif" font-size="14.00">UserSession</text>
<polyline fill="none" stroke="black" points="448.077,-465.5 533.298,-465.5 "/>
<text text-anchor="middle" x="490.688" y="-450.3" font-family="Times,serif" font-size="14.00"> </text>
</g>
</g>
</svg>
